<?xml version="1.0" standalone="no"?>
<!DOCTYPE svg PUBLIC "-//W3C//DTD SVG 20010904//EN"
 "http://www.w3.org/TR/2001/REC-SVG-20010904/DTD/svg10.dtd">
<svg version="1.0" xmlns="http://www.w3.org/2000/svg"
 width="1394.000000pt" height="1301.000000pt" viewBox="0 0 1394.000000 1301.000000"
 preserveAspectRatio="xMidYMid meet">

<g transform="translate(0.000000,1301.000000) scale(0.100000,-0.100000)"
fill="#000000" stroke="none">
<path d="M6615 12078 c-178 -12 -477 -54 -675 -94 -1221 -244 -2324 -901
-3135 -1869 -733 -874 -1190 -1991 -1285 -3138 -6 -77 -9 -141 -6 -145 3 -3
16 4 29 15 12 11 38 29 57 38 33 17 89 18 970 11 514 -3 980 -9 1035 -13 l100
-6 42 -42 c36 -35 43 -49 43 -81 0 -47 -29 -98 -67 -118 -45 -23 -211 -27
-1183 -30 -988 -3 -944 -6 -1000 55 -26 29 -30 31 -36 15 -8 -22 2 -554 11
-577 7 -19 60 -21 880 -38 478 -10 708 -23 730 -41 7 -6 16 -47 20 -92 4 -46
11 -90 16 -100 7 -12 4 -18 -9 -22 -29 -9 -338 -26 -487 -26 -77 0 -145 -4
-152 -8 -8 -5 4 -32 41 -89 30 -45 76 -121 102 -169 59 -106 98 -145 183 -187
65 -32 68 -32 211 -32 138 0 148 -1 201 -28 151 -74 223 -241 170 -392 -29
-81 -71 -129 -149 -167 -56 -28 -78 -33 -133 -32 -155 1 -275 116 -288 278
l-6 70 -102 51 c-190 96 -246 155 -342 358 -49 104 -72 141 -121 192 -65 67
-150 119 -234 141 -58 16 -461 20 -485 5 -11 -7 -10 -26 3 -117 280 -1845
1473 -3449 3137 -4219 1123 -521 2352 -650 3542 -375 1946 451 3506 1942 4062
3881 83 291 170 715 163 798 l-3 36 -1015 7 c-558 3 -1035 8 -1060 10 -79 7
-86 16 -83 95 3 83 24 139 55 146 79 19 775 37 1513 38 325 1 599 5 611 10 16
6 23 19 27 56 10 78 20 418 14 444 l-6 25 -1093 3 c-601 1 -1104 5 -1118 8
-57 13 -109 95 -96 150 10 39 47 83 87 104 34 17 93 18 1108 25 809 5 1076 10
1088 19 15 11 15 23 4 131 -76 732 -263 1373 -586 2014 -449 891 -1154 1665
-1996 2193 -756 474 -1587 749 -2483 822 -203 16 -619 18 -821 3z m880 -318
c472 -59 596 -82 889 -165 443 -126 860 -305 1249 -539 376 -226 792 -548
1043 -807 421 -437 703 -823 939 -1287 48 -95 57 -121 56 -163 -1 -61 -23
-114 -64 -158 -42 -44 -84 -61 -150 -61 -95 0 -153 54 -248 229 -104 195 -216
389 -284 492 -84 128 -270 361 -372 465 l-76 78 -7 68 c-21 189 -187 345 -379
356 -50 3 -93 -1 -126 -11 -31 -9 -58 -11 -72 -6 -12 4 -75 52 -140 106 -189
157 -351 265 -609 407 -846 462 -1792 634 -2729 496 -571 -84 -1201 -317
-1635 -606 -58 -39 -110 -73 -117 -77 -7 -5 -37 15 -75 49 -35 31 -96 73 -136
92 -68 32 -80 35 -165 34 -170 -1 -299 -69 -388 -205 -61 -94 -82 -171 -77
-285 3 -83 8 -107 35 -165 78 -165 262 -277 432 -264 135 10 232 60 399 205
278 244 531 406 853 545 204 89 512 187 709 226 58 12 128 25 155 31 28 5 122
19 210 30 180 22 594 28 746 10 298 -36 339 -43 611 -109 315 -77 555 -164
837 -306 270 -135 629 -374 778 -518 61 -59 75 -79 89 -126 38 -134 125 -245
231 -297 68 -33 177 -44 248 -24 23 7 51 9 61 5 21 -7 98 -95 182 -208 245
-328 419 -683 512 -1043 53 -205 64 -297 64 -554 1 -222 0 -237 -21 -275 -40
-75 -99 -115 -168 -115 -47 0 -78 14 -124 55 -72 66 -72 62 -74 595 -2 433 -4
479 -20 515 -65 146 -180 208 -323 176 -68 -16 -143 -80 -171 -148 -20 -47
-21 -75 -27 -1078 -6 -993 -13 -1247 -36 -1365 -34 -178 -131 -467 -221 -660
-73 -157 -117 -234 -217 -380 -247 -360 -494 -592 -847 -794 -200 -115 -354
-173 -660 -251 -252 -64 -357 -101 -456 -160 -110 -65 -178 -123 -252 -216
-125 -155 -189 -320 -202 -519 -11 -177 -26 -355 -31 -383 -5 -26 -27 -40 -23
-14 3 28 -2 37 -25 37 -14 0 -28 5 -31 10 -8 13 -45 13 -45 1 0 -6 5 -13 11
-17 8 -5 6 -10 -6 -16 -11 -7 -21 -6 -28 1 -6 6 -19 11 -28 11 -26 0 -29 20
-39 215 -14 259 -40 385 -110 525 -76 152 -222 290 -400 380 -98 50 -179 77
-350 121 -369 94 -635 205 -867 361 -153 103 -239 174 -387 318 -365 355 -610
777 -731 1260 -65 258 -74 382 -76 1025 -1 286 -4 750 -8 1030 -6 490 -7 512
-27 556 -50 107 -128 159 -240 159 -97 0 -141 -16 -200 -75 -85 -84 -83 -76
-91 -634 -6 -464 -7 -485 -27 -524 -12 -23 -38 -55 -59 -71 -34 -28 -46 -31
-105 -31 -118 0 -189 58 -213 173 -15 72 -5 392 16 512 56 317 185 659 352
936 27 45 95 146 150 225 132 189 147 219 147 294 0 166 -155 263 -302 189
-67 -33 -141 -115 -252 -280 -231 -341 -432 -773 -565 -1210 -50 -165 -79
-280 -120 -489 -49 -242 -77 -300 -168 -344 -145 -70 -316 55 -317 231 0 122
179 735 309 1058 58 142 203 441 279 573 385 667 986 1346 1492 1684 517 346
1098 600 1745 762 187 47 340 78 445 91 132 16 363 40 430 44 129 7 747 -3
835 -14z m3492 -6506 c98 -48 177 -169 177 -269 0 -93 -64 -197 -156 -256 -50
-32 -57 -34 -143 -34 -80 0 -95 3 -136 27 -55 33 -116 97 -136 146 -25 61 -21
168 8 232 56 121 142 180 264 180 56 0 82 -5 122 -26z m-6877 -301 c0 -12 -43
-53 -56 -53 -21 0 -36 -39 -31 -81 5 -43 -6 -51 -24 -18 -22 42 10 131 54 149
27 11 57 12 57 3z m6105 -942 c3 -5 1 -12 -5 -16 -5 -3 -10 1 -10 9 0 18 6 21
15 7z m-45 -61 c0 -6 -27 -40 -60 -75 -33 -35 -60 -68 -60 -73 0 -13 -268
-276 -350 -342 -135 -110 -370 -280 -387 -280 -3 0 -29 -15 -57 -34 -28 -18
-88 -52 -132 -74 -45 -22 -101 -51 -125 -65 -57 -33 -328 -145 -461 -191 -200
-69 -641 -171 -699 -161 -121 21 -175 135 -110 236 47 74 79 88 243 104 305
30 440 56 629 121 127 43 159 56 288 116 51 24 68 28 83 19 20 -12 68 1 68 20
0 8 -4 8 -14 0 -10 -8 -16 -9 -21 -1 -7 11 2 30 15 30 36 0 469 302 575 401
22 21 56 51 76 66 20 15 57 45 82 66 33 27 53 37 78 37 68 -1 110 5 118 19 5
8 30 14 63 15 47 2 54 0 51 -15 -3 -9 0 -20 6 -23 7 -4 11 1 11 12 0 31 42 70
88 81 1 1 2 -4 2 -9z m-5837 -156 c7 -8 -3 -34 -13 -34 -4 0 -10 9 -13 20 -5
19 12 28 26 14z m42 -54 c16 -25 13 -50 -5 -50 -31 0 -50 -11 -50 -30 0 -10 5
-20 12 -22 16 -6 2 -38 -16 -38 -20 0 -30 64 -14 90 10 16 10 24 0 40 -11 19
-10 20 27 20 22 0 43 -4 46 -10z m-135 -44 c0 -17 -14 -29 -23 -20 -8 8 3 34
14 34 5 0 9 -6 9 -14z m234 -15 c11 -12 14 -21 7 -26 -14 -8 -28 1 -41 26 -14
26 10 26 34 0z m3 -74 c14 -28 33 -28 33 -1 0 8 5 14 11 14 5 0 7 5 4 10 -8
13 1 13 26 0 11 -6 19 -21 19 -35 0 -26 15 -41 25 -25 11 18 33 11 65 -20 17
-16 47 -38 68 -49 20 -10 54 -32 74 -48 20 -15 60 -41 89 -58 28 -16 59 -37
69 -46 9 -9 28 -19 41 -23 36 -9 78 -51 83 -81 3 -15 13 -36 23 -47 14 -16 15
-21 4 -28 -8 -4 -20 -6 -28 -3 -9 3 -16 -2 -19 -14 -3 -11 -25 -29 -48 -40
-49 -22 -71 -17 -143 30 -24 15 -49 27 -57 27 -8 0 -28 11 -44 25 -17 14 -34
25 -39 25 -5 0 -44 24 -88 53 -207 138 -215 146 -208 195 4 23 10 32 25 32 10
0 17 4 13 10 -3 5 -12 7 -20 3 -9 -3 -27 2 -41 12 -24 16 -25 17 -9 42 19 29
10 47 -10 19 -21 -28 -38 -10 -21 23 12 23 21 28 52 27 29 -1 39 -7 51 -29z
m-143 -53 c24 -9 19 -24 -8 -24 -13 0 -26 7 -30 15 -6 16 10 20 38 9z m826
-330 c0 -8 -4 -12 -10 -9 -5 3 -10 10 -10 16 0 5 5 9 10 9 6 0 10 -7 10 -16z
m-13 -46 c-3 -8 -6 -5 -6 6 -1 11 2 17 5 13 3 -3 4 -12 1 -19z m3356 -820
c-14 -16 -18 -38 -18 -116 -1 -53 3 -103 9 -110 11 -15 13 -14 -49 -39 -149
-63 -481 -143 -588 -143 -51 0 -69 5 -101 26 -97 66 -84 212 24 269 14 7 70
18 125 25 55 6 134 17 175 25 103 19 358 73 395 84 40 11 50 3 28 -21z"/>
<path d="M6913 10570 c-157 -63 -245 -269 -176 -410 78 -158 269 -231 411
-157 123 64 182 152 182 272 0 168 -129 302 -300 312 -49 2 -78 -2 -117 -17z"/>
<path d="M5461 10050 c-144 -30 -242 -165 -228 -317 10 -108 62 -184 159 -232
111 -56 217 -39 313 50 65 60 97 127 98 204 3 193 -157 332 -342 295z"/>
<path d="M8415 10026 c-144 -66 -201 -233 -131 -382 107 -227 406 -231 518 -5
47 95 18 242 -65 330 -77 81 -218 106 -322 57z"/>
<path d="M6815 9610 c-302 -23 -673 -153 -940 -328 -345 -226 -585 -479 -739
-778 -55 -108 -89 -144 -147 -154 -63 -12 -106 -1 -143 34 -47 44 -56 99 -56
355 0 249 -7 282 -72 356 -57 65 -89 79 -178 79 -65 1 -82 -3 -122 -27 -26
-15 -59 -43 -74 -62 -59 -78 -57 -8 -55 -1440 1 -738 6 -1360 12 -1424 18
-219 82 -443 198 -700 181 -401 461 -728 846 -990 229 -156 407 -230 785 -327
251 -64 366 -110 515 -209 148 -98 273 -245 336 -393 15 -37 32 -68 38 -70 6
-2 23 26 39 61 132 290 389 492 757 595 77 22 163 45 190 52 214 54 357 106
511 186 457 240 841 660 1048 1147 76 179 139 391 167 562 15 90 23 2839 9
2965 -12 103 -53 195 -105 235 -110 84 -270 67 -345 -37 -58 -80 -62 -112 -58
-496 3 -334 2 -348 -17 -382 -41 -69 -144 -97 -203 -53 -15 11 -52 64 -82 119
-150 267 -306 449 -555 649 -320 257 -657 407 -1044 465 -90 13 -398 20 -516
10z m481 -420 c289 -79 545 -303 652 -570 43 -108 60 -207 66 -396 4 -99 4
-188 0 -197 -6 -15 -32 -17 -269 -17 -162 0 -275 4 -292 11 -15 5 -40 22 -55
37 -54 50 -28 150 51 196 28 16 59 21 180 25 l146 6 -3 40 c-12 152 -91 306
-214 421 -112 103 -237 165 -391 192 -76 14 -102 14 -189 3 -114 -14 -230 -52
-316 -105 -110 -66 -229 -208 -272 -323 -26 -71 -54 -199 -46 -219 4 -11 32
-14 141 -14 147 0 188 -10 237 -57 76 -73 51 -182 -50 -211 -15 -4 -150 -7
-300 -7 -262 0 -274 1 -289 20 -22 29 -11 347 17 462 67 278 241 493 512 629
214 108 464 135 684 74z m-608 -1431 c58 -29 84 -71 79 -126 -6 -53 -27 -87
-70 -110 -28 -16 -66 -18 -304 -21 -184 -2 -279 0 -293 8 -18 10 -20 20 -20
130 0 103 2 120 18 129 10 6 120 11 281 11 250 0 267 -1 309 -21z m1322 2 c5
-11 10 -65 10 -121 0 -56 -5 -110 -10 -121 -10 -18 -24 -19 -253 -19 -145 0
-258 5 -282 11 -21 6 -54 26 -72 44 -27 27 -33 40 -33 78 0 54 31 105 80 129
31 16 67 18 292 18 244 0 258 -1 268 -19z m-2985 -132 c74 -65 69 -14 76 -809
4 -486 10 -731 18 -765 70 -304 298 -673 551 -893 268 -232 597 -387 975 -459
108 -20 460 -29 595 -14 150 16 326 54 470 101 155 50 394 168 520 257 124 88
355 319 442 443 128 181 224 409 259 608 17 105 19 166 19 775 0 647 0 662 21
703 25 52 91 90 141 80 47 -9 98 -53 120 -102 18 -42 19 -72 16 -756 l-4 -713
-27 -97 c-65 -232 -148 -418 -262 -588 -345 -515 -811 -825 -1421 -944 -207
-40 -325 -51 -549 -50 -238 0 -361 15 -570 69 -369 95 -659 248 -963 510 -286
246 -496 573 -607 945 -50 168 -50 170 -50 920 0 700 0 705 21 738 31 49 71
72 126 72 39 0 54 -6 83 -31z m1641 -386 c114 -61 127 -172 27 -235 -33 -20
-52 -23 -158 -26 -66 -1 -194 1 -285 5 l-165 8 -3 124 c-2 86 1 128 10 138 10
12 53 14 272 11 247 -3 263 -4 302 -25z m1341 1 c17 -24 18 -225 1 -242 -19
-19 -520 -17 -557 3 -121 62 -99 211 37 256 15 5 135 7 267 5 214 -4 241 -7
252 -22z m-2395 -255 c28 -15 65 -71 82 -124 12 -37 18 -121 25 -330 10 -317
15 -348 86 -492 85 -173 220 -324 391 -439 89 -59 148 -87 303 -144 146 -54
194 -108 170 -193 -28 -102 -134 -124 -316 -66 -387 124 -744 466 -882 846
-56 153 -65 229 -65 548 -1 289 -1 290 23 332 41 71 117 96 183 62z m2959 -2
c19 -12 44 -42 57 -67 21 -43 22 -54 22 -320 0 -298 -8 -377 -54 -514 -73
-218 -167 -366 -340 -538 -197 -197 -459 -341 -686 -378 -135 -22 -220 23
-220 115 0 82 49 142 136 164 233 61 412 158 552 300 117 120 212 275 265 432
36 108 38 134 40 425 2 257 2 260 28 309 44 87 131 118 200 72z m-2258 -156
c4 -4 19 -52 32 -105 69 -280 253 -471 520 -542 95 -26 284 -26 375 -1 126 34
207 83 311 187 82 80 103 108 137 180 22 47 48 119 57 160 29 134 22 124 95
130 86 8 168 1 173 -15 7 -18 -10 -155 -29 -232 -65 -265 -285 -520 -542 -628
-138 -58 -208 -70 -392 -70 -179 1 -241 12 -373 66 -293 119 -529 395 -587
688 -38 196 -33 205 114 196 56 -4 105 -10 109 -14z"/>
<path d="M10828 5074 c-94 -51 -64 -194 41 -194 102 0 140 141 52 193 -35 21
-57 21 -93 1z"/>
<path d="M4556 3525 c-9 -24 -8 -25 15 -25 14 0 19 5 17 17 -4 23 -24 27 -32
8z"/>
<path d="M4685 3320 c-3 -5 1 -10 9 -10 9 0 16 5 16 10 0 6 -4 10 -9 10 -6 0
-13 -4 -16 -10z"/>
<path d="M4755 3280 c3 -5 8 -10 11 -10 2 0 4 5 4 10 0 6 -5 10 -11 10 -5 0
-7 -4 -4 -10z"/>
<path d="M4950 3266 c0 -9 5 -16 10 -16 6 0 10 -7 10 -15 0 -8 -7 -15 -15 -15
-22 0 -18 -21 5 -27 15 -4 20 -14 20 -39 0 -24 5 -34 16 -34 11 0 15 8 14 28
-3 42 -1 54 9 48 5 -3 14 1 21 9 10 12 9 20 -4 40 -9 14 -22 25 -29 25 -6 0
-22 3 -34 6 -17 5 -23 2 -23 -10z"/>
<path d="M4790 3251 c0 -12 39 -21 45 -11 3 4 -2 11 -11 14 -22 8 -34 7 -34
-3z"/>
<path d="M3074 5046 c-27 -27 -34 -42 -34 -74 0 -107 146 -147 194 -53 21 40
20 69 -4 109 -37 61 -105 69 -156 18z"/>
</g>
</svg>
